<svg id="Capa_1" enable-background="new 0 0 512.079 512.079" height="512" viewBox="0 0 512.079 512.079" width="512" xmlns="http://www.w3.org/2000/svg"><g><path d="m56.051 481.535-1.768-47.398c-.315-8.448-3.011-16.636-7.776-23.619l-28.883-42.327c-13.153-19.275-13.485-44.553-.842-64.167l46.04-71.429 36.264 106.157-13.059 139.418z" fill="#f1d0a5"/><path d="m456 481.535 1.768-47.398c.315-8.448 3.011-16.636 7.776-23.619l28.883-42.327c13.153-19.275 13.485-44.553.842-64.167l-46.04-71.429-36.264 106.157 13.061 139.417z" fill="#f1d0a5"/><path d="m495.268 304.024-46.041-71.429-7.664 22.435 31.58 48.994c12.642 19.614 12.311 44.891-.842 64.167l-28.883 42.327c-4.765 6.983-7.46 15.17-7.776 23.619l-1.676 44.924 22.034 2.474 1.768-47.398c.315-8.448 3.01-16.636 7.776-23.619l28.883-42.327c13.152-19.275 13.484-44.553.841-64.167z" fill="#f1b986"/><path d="m425.995 348.856h-339.939c-12.614 0-22.84-10.226-22.84-22.84v-226.622c0-12.614 10.226-22.84 22.84-22.84h339.939c12.614 0 22.84 10.226 22.84 22.84v226.622c0 12.614-10.226 22.84-22.84 22.84z" fill="#365e7d"/><path d="m425.995 76.554h-15.509c12.614 0 22.84 10.226 22.84 22.84v226.622c0 12.614-10.226 22.84-22.84 22.84h15.509c12.614 0 22.84-10.226 22.84-22.84v-226.622c0-12.614-10.226-22.84-22.84-22.84z" fill="#2b4d66"/><g><path d="m416.066 108.08h-311.518c-.685 0-1.242.589-1.242 1.313v206.622c0 .724.558 1.314 1.242 1.314h311.518c.685 0 1.243-.59 1.243-1.314v-206.621c0-.724-.558-1.314-1.243-1.314z" fill="#d3effb"/><path d="m416.066 108.08h-16.592c.686 0 1.243.589 1.243 1.313v206.622c0 .724-.557 1.313-1.243 1.313h16.592c.686 0 1.243-.589 1.243-1.313v-206.621c0-.724-.558-1.314-1.243-1.314z" fill="#b1e4f9"/></g><path d="m120.651 474.42.808-34.757c.129-5.542 1.125-11.03 2.953-16.264 5.134-14.702 2.227-31.018-7.67-43.041-2.083-2.531-2.409-6.078-.822-8.946l42.061-75.994c3.411-6.163 2.284-13.845-2.755-18.768-6.307-6.163-16.46-5.899-22.438.584l-69.966 75.874 4.604 52.877 18.6 72.186z" fill="#f1d0a5"/><path d="m157.982 295.416c3.411-6.163 2.283-13.845-2.754-18.768-5.683-5.553-14.477-5.87-20.538-1.141.452.353.891.73 1.31 1.141 5.038 4.923 6.166 12.605 2.755 18.768l-42.062 75.994c-1.587 2.868-1.262 6.415.822 8.946 9.897 12.024 12.805 28.339 7.67 43.042-1.828 5.234-2.824 10.722-2.953 16.264l-.436 18.749c-.213 9.161-7.182 16.746-16.292 17.732l.522 2.026 34.625-3.75.786-33.815c.136-5.837 1.03-11.656 2.96-17.166 5.154-14.713 2.25-31.048-7.656-43.083-2.084-2.531-2.409-6.078-.822-8.946z" fill="#f1b986"/><path d="m391.4 474.42-.808-34.757c-.129-5.542-1.125-11.03-2.953-16.264-5.134-14.702-2.227-31.018 7.67-43.041 2.083-2.531 2.409-6.078.822-8.946l-42.061-75.994c-3.411-6.163-2.284-13.845 2.755-18.768 6.307-6.163 16.46-5.899 22.438.584l69.966 75.874-4.604 52.877-18.6 72.186z" fill="#f1d0a5"/><path d="m495.664 134.726h-191.558c-4.894 0-8.861-3.967-8.861-8.861v-86.46c0-4.894 3.967-8.861 8.861-8.861h191.558c4.894 0 8.861 3.967 8.861 8.861v86.461c0 4.893-3.967 8.86-8.861 8.86z" fill="#ffc250"/><path d="m495.664 30.544h-18.644c4.894 0 8.861 3.967 8.861 8.861v86.46c0 4.894-3.967 8.861-8.861 8.861h18.644c4.894 0 8.861-3.967 8.861-8.861v-86.46c0-4.894-3.967-8.861-8.861-8.861z" fill="#ebb044"/><path d="m221.534 192.705h-74.617c-5.334 0-9.659-4.324-9.659-9.659v-22.398c0-5.334 4.324-9.659 9.659-9.659h74.617c5.334 0 9.659 4.324 9.659 9.659v22.398c0 5.334-4.325 9.659-9.659 9.659z" fill="#dd636e"/><path d="m221.534 150.99h-19.173c5.334 0 9.659 4.324 9.659 9.659v22.398c0 5.334-4.324 9.659-9.659 9.659h19.173c5.334 0 9.659-4.324 9.659-9.659v-22.398c0-5.335-4.325-9.659-9.659-9.659z" fill="#da4a54"/><path d="m323.073 290.707h-115.532c-5.035 0-9.116-4.081-9.116-9.116v-37.518c0-5.035 4.081-9.116 9.116-9.116h115.532c5.035 0 9.116 4.081 9.116 9.116v37.518c0 5.035-4.081 9.116-9.116 9.116z" fill="#95d6a4"/><path d="m323.073 234.957h-18.043c5.035 0 9.116 4.081 9.116 9.116v37.519c0 5.034-4.081 9.116-9.116 9.116h18.043c5.035 0 9.116-4.081 9.116-9.116v-37.519c0-5.035-4.081-9.116-9.116-9.116z" fill="#78c2a4"/><g><path d="m487.003 379.069c-3.423-2.336-8.089-1.455-10.423 1.968l-17.231 25.253c-5.568 8.161-8.707 17.693-9.076 27.567l-1.768 47.398c-.158 4.229 3.222 7.779 7.5 7.779 4.013 0 7.339-3.177 7.49-7.221l1.768-47.397c.263-7.046 2.502-13.849 6.477-19.672l17.231-25.253c2.334-3.421 1.452-8.087-1.968-10.422z"/><path d="m501.572 299.961-45.237-70.184v-87.55h39.33c9.021 0 16.36-7.34 16.36-16.361v-86.46c0-9.021-7.339-16.361-16.36-16.361h-99.53c-4.143 0-7.5 3.357-7.5 7.5s3.357 7.5 7.5 7.5h99.53c.75 0 1.36.61 1.36 1.361v86.46c0 .751-.61 1.361-1.36 1.361h-191.559c-.751 0-1.361-.61-1.361-1.361v-86.46c0-.751.61-1.361 1.361-1.361h62.041c4.143 0 7.5-3.357 7.5-7.5s-3.357-7.5-7.5-7.5h-62.041c-9.021 0-16.361 7.34-16.361 16.361v29.648h-201.689c-16.729 0-30.341 13.61-30.341 30.34v57.623c0 4.143 3.357 7.5 7.5 7.5s7.5-3.357 7.5-7.5v-57.624c0-8.458 6.882-15.34 15.341-15.34h201.688v16.526h-183.196c-4.82 0-8.742 3.954-8.742 8.813v196.882l-23.825 25.837c-.824-1.9-1.266-3.963-1.266-6.096v-139.012c0-4.143-3.357-7.5-7.5-7.5s-7.5 3.357-7.5 7.5v42.775l-45.236 70.183c-14.31 22.2-13.937 50.641.95 72.458l28.883 42.325c3.975 5.825 6.214 12.628 6.476 19.672l1.769 47.398c.151 4.045 3.477 7.221 7.49 7.221 4.272 0 7.658-3.546 7.5-7.779l-1.769-47.398c-.368-9.871-3.506-19.404-9.075-27.567l-28.883-42.327c-11.479-16.824-11.768-38.757-.733-55.876l32.629-50.623v68.551c0 6.408 1.981 12.51 5.641 17.618l-4.047 4.389c-2.808 3.045-2.615 7.79.43 10.598 3.044 2.808 7.789 2.617 10.598-.43l69.967-75.874c3.1-3.361 8.375-3.536 11.683-.304 2.614 2.555 3.204 6.573 1.435 9.771l-42.062 75.993c-3.099 5.597-2.474 12.405 1.592 17.346 8.179 9.936 10.623 23.654 6.38 35.804-2.089 5.984-3.223 12.229-3.369 18.561l-.809 34.758c-.098 4.183 3.259 7.675 7.502 7.675 4.061 0 7.399-3.244 7.494-7.325l.809-34.76c.11-4.763.963-9.461 2.535-13.964 5.958-17.061 2.525-36.327-8.96-50.28-.129-.156-.148-.371-.051-.549l10.343-18.687h246.401l10.343 18.688c.098.177.078.392-.05.547-11.485 13.952-14.92 33.219-8.961 50.282 1.571 4.499 2.425 9.197 2.535 13.965l.809 34.758c.094 4.045 3.404 7.393 7.673 7.323 4.141-.097 7.42-3.531 7.323-7.673l-.809-34.758c-.147-6.336-1.281-12.581-3.37-18.562-4.243-12.149-1.798-25.868 6.381-35.804 4.065-4.939 4.69-11.748 1.592-17.344l-42.062-75.994c-1.77-3.198-1.18-7.216 1.435-9.771 3.264-3.188 8.548-3.095 11.683.304l69.967 75.874c2.808 3.045 7.554 3.237 10.598.43 3.045-2.808 3.237-7.553.43-10.598l-4.051-4.393c3.633-5.104 5.644-11.271 5.644-17.614v-68.552l32.63 50.624c9.49 14.724 10.72 32.978 3.289 48.828-1.758 3.751-.143 8.217 3.607 9.975 3.735 1.75 8.209.16 9.975-3.607 9.633-20.559 8.04-44.23-4.267-63.323zm-360.444 41.394 9.147-16.526h211.502l9.147 16.526zm210.455-70.071c-7.43 7.26-9.105 18.677-4.075 27.764l5.967 10.781h-194.898l5.967-10.781c5.029-9.088 3.353-20.505-4.076-27.764-9.275-9.062-24.288-8.794-33.192.864l-16.47 17.86v-174.428h176.938v10.285c0 9.021 7.34 16.361 16.361 16.361h105.703v157.07l-25.034-27.148c-8.923-9.678-23.946-9.9-33.191-.864zm73.226 44.279v-173.337h16.525v183.789c0 2.146-.433 4.211-1.255 6.107z"/><path d="m90.957 218.121v-10.832c0-4.143-3.357-7.5-7.5-7.5s-7.5 3.357-7.5 7.5v10.832c0 4.143 3.357 7.5 7.5 7.5s7.5-3.357 7.5-7.5z"/><path d="m465.107 104.886c-4.785 0-7.521-2.609-8.247-3.409-2.78-3.068-7.524-3.301-10.594-.52-3.068 2.781-3.302 7.524-.52 10.594 4.801 5.297 11.857 8.335 19.36 8.335 9.584 0 17.649-6.21 19.178-14.767 1.782-9.983-5.966-16.617-13.143-19.264-4.306-1.589-8.35-3.306-10.123-4.074-.001-.029.002-.064.009-.109.065-.454.562-.854 1.364-1.096 5.279-1.588 10.868.933 11.074 1.027 3.708 1.784 8.17.244 9.985-3.457 1.823-3.72.286-8.213-3.433-10.036-1.101-.539-11.066-5.175-21.954-1.896-6.429 1.937-10.982 7.043-11.885 13.326-.855 5.957 1.729 11.689 6.746 14.961.332.217.68.406 1.041.567.232.104 5.763 2.564 11.983 4.859 2.668.984 3.64 2.149 3.567 2.555-.142.812-1.629 2.404-4.408 2.404z"/><path d="m351.459 69.243c-3.293-1.567-6.974-2.447-10.858-2.447-13.982 0-25.357 11.375-25.357 25.357s11.375 25.357 25.357 25.357c3.884 0 7.565-.88 10.858-2.447 1.079 2.818 3.801 4.822 6.999 4.822 4.143 0 7.5-3.357 7.5-7.5v-40.464c0-4.143-3.357-7.5-7.5-7.5-3.197 0-5.92 2.004-6.999 4.822zm-10.858 33.268c-5.711 0-10.357-4.646-10.357-10.357s4.646-10.357 10.357-10.357 10.357 4.646 10.357 10.357-4.646 10.357-10.357 10.357z"/><path d="m405.26 119.886c4.928 0 9.553-1.312 13.555-3.595 1.318 2.154 3.685 3.595 6.395 3.595 4.143 0 7.5-3.357 7.5-7.5v-59.5c0-4.143-3.357-7.5-7.5-7.5s-7.5 3.357-7.5 7.5v15.096c-3.74-1.912-7.969-2.999-12.45-2.999-15.137 0-27.451 12.314-27.451 27.451s12.315 27.452 27.451 27.452zm0-39.903c6.865 0 12.45 5.586 12.45 12.451s-5.585 12.451-12.45 12.451-12.451-5.586-12.451-12.451 5.586-12.451 12.451-12.451z"/><path d="m238.693 183.046v-22.397c0-9.462-7.697-17.159-17.159-17.159h-74.616c-9.462 0-17.159 7.697-17.159 17.159v22.397c0 9.462 7.697 17.159 17.159 17.159h74.616c9.462 0 17.159-7.697 17.159-17.159zm-93.935 0v-22.397c0-1.19.969-2.159 2.159-2.159h74.616c1.19 0 2.159.969 2.159 2.159v22.397c0 1.19-.969 2.159-2.159 2.159h-74.616c-1.19 0-2.159-.969-2.159-2.159z"/><path d="m375.942 161.489h-107.52c-4.143 0-7.5 3.357-7.5 7.5s3.357 7.5 7.5 7.5h107.521c4.143 0 7.5-3.357 7.5-7.5s-3.358-7.5-7.501-7.5z"/><path d="m335.942 192.608h-67.521c-4.143 0-7.5 3.357-7.5 7.5s3.357 7.5 7.5 7.5h67.521c4.143 0 7.5-3.357 7.5-7.5s-3.357-7.5-7.5-7.5z"/><path d="m323.073 227.457h-115.531c-9.162 0-16.616 7.454-16.616 16.616v37.519c0 9.162 7.454 16.615 16.616 16.615h31.971c4.143 0 7.5-3.357 7.5-7.5s-3.357-7.5-7.5-7.5h-31.971c-.892 0-1.616-.725-1.616-1.615v-37.519c0-.892.725-1.616 1.616-1.616h115.531c.892 0 1.616.725 1.616 1.616v37.519c0 .891-.725 1.615-1.616 1.615h-53.574c-4.143 0-7.5 3.357-7.5 7.5s3.357 7.5 7.5 7.5h53.574c9.162 0 16.616-7.453 16.616-16.615v-37.519c0-9.162-7.454-16.616-16.616-16.616z"/></g></g></svg>