<?xml version="1.0" encoding="iso-8859-1"?>
<!-- Generator: Adobe Illustrator 19.0.0, SVG Export Plug-In . SVG Version: 6.00 Build 0)  -->
<svg version="1.1" id="Capa_1" xmlns="http://www.w3.org/2000/svg"  width="50" 
height="50"  xmlns:xlink="http://www.w3.org/1999/xlink" x="0px" y="0px"
	 viewBox="0 0 473.96 473.96" style="enable-background:new 0 0 473.96 473.96;" xml:space="preserve">
<circle style="fill:#F3F2F2;" cx="236.98" cy="236.98" r="236.98"/>
<g>
	<path style="fill:#F7981D;" d="M192.949,273.573c-15.757,11.633-38.593,17.818-58.26,17.818c-27.558,0-52.378-10.193-71.169-27.154
		c-1.471-1.325-0.153-3.151,1.616-2.114c20.266,11.787,45.324,18.892,71.21,18.892c17.459,0,36.651-3.626,54.316-11.117
		C193.323,268.773,195.557,271.65,192.949,273.573z"/>
	<path style="fill:#F7981D;" d="M199.505,266.097c-2.017-2.578-13.325-1.22-18.402-0.621c-1.527,0.187-1.77-1.149-0.389-2.125
		c9.018-6.335,23.794-4.505,25.512-2.384c1.732,2.14-0.453,16.947-8.909,24.022c-1.302,1.085-2.537,0.501-1.949-0.935
		C197.26,279.306,201.521,268.675,199.505,266.097z"/>
</g>
<path d="M181.462,218.603v-6.155c0.007-0.939,0.707-1.56,1.564-1.56l27.581-0.004c0.883,0,1.594,0.647,1.594,1.56v5.268
	c-0.007,0.887-0.752,2.047-2.077,3.88l-14.286,20.396c5.306-0.123,10.911,0.674,15.727,3.379c1.089,0.61,1.381,1.512,1.471,2.402
	v6.571c0,0.902-0.988,1.949-2.032,1.411c-8.494-4.456-19.76-4.939-29.145,0.049c-0.965,0.509-1.964-0.516-1.964-1.426v-6.245
	c0-0.995,0.015-2.709,1.029-4.232l16.554-23.745l-14.421-0.004C182.176,220.152,181.469,219.527,181.462,218.603z"/>
<path d="M80.849,257.042H72.46c-0.804-0.052-1.441-0.651-1.497-1.414v-43.072c0-0.861,0.722-1.549,1.624-1.549H80.4
	c0.819,0.037,1.478,0.659,1.527,1.444v5.624h0.153c2.039-5.437,5.875-7.977,11.049-7.977c5.246,0,8.535,2.541,10.889,7.977
	c2.032-5.437,6.657-7.977,11.592-7.977c3.521,0,7.36,1.452,9.714,4.715c2.66,3.626,2.118,8.883,2.118,13.5l-0.015,27.18
	c0,0.861-0.722,1.549-1.616,1.549h-8.382c-0.842-0.052-1.504-0.722-1.504-1.542v-22.836c0-1.811,0.153-6.346-0.239-8.071
	c-0.621-2.896-2.507-3.712-4.932-3.712c-2.039,0-4.15,1.358-5.014,3.536s-0.782,5.804-0.782,8.247v22.829
	c0,0.861-0.73,1.549-1.624,1.549h-8.382c-0.842-0.052-1.504-0.722-1.504-1.542l-0.015-22.836c0-4.804,0.79-11.873-5.167-11.873
	c-6.028,0-5.796,6.885-5.796,11.873l-0.007,22.829C82.465,256.354,81.747,257.042,80.849,257.042z"/>
<path d="M235.95,210.098c12.445,0,19.184,10.694,19.184,24.288c0,13.141-7.439,23.562-19.184,23.562
	c-12.228,0-18.885-10.69-18.885-24.015C217.065,220.515,223.804,210.098,235.95,210.098z M236.024,218.887
	c-6.189,0-6.578,8.434-6.578,13.687c0,5.253-0.079,16.494,6.503,16.494c6.496,0,6.803-9.063,6.803-14.586
	c0-3.63-0.153-7.981-1.25-11.424C240.567,220.066,238.685,218.887,236.024,218.887z"/>
<path d="M271.283,257.042h-8.359c-0.842-0.052-1.497-0.722-1.497-1.542l-0.022-43.09c0.079-0.782,0.767-1.403,1.616-1.403h7.783
	c0.73,0.037,1.336,0.535,1.489,1.205v6.586h0.161c2.346-5.89,5.635-8.7,11.431-8.7c3.764,0,7.439,1.355,9.792,5.07
	c2.193,3.446,2.193,9.25,2.193,13.414v27.102c-0.094,0.763-0.775,1.355-1.602,1.355h-8.411c-0.782-0.052-1.411-0.621-1.497-1.355
	v-23.382c0-4.718,0.546-11.603-5.246-11.603c-2.039,0-3.918,1.362-4.853,3.442c-1.182,2.63-1.336,5.257-1.336,8.161v23.188
	C272.9,256.354,272.185,257.042,271.283,257.042z"/>
<ellipse cx="305.27" cy="253.63" rx="4.127" ry="3.921"/>
<path d="M390.036,257.057c-0.868-0.026-1.557-0.707-1.557-1.549v-43.079c0.06-0.76,0.696-1.362,1.497-1.414h3.083
	c0.849,0,1.542,0.621,1.609,1.414v6.282c2.185-4.973,6.271-8.872,11.431-8.872l0.322,0.007l0.314-0.007
	c5.474,0,9.47,4.034,10.963,9.901c2.316-5.792,6.687-9.901,12.445-9.901l0.299,0.007l0.337-0.007c4.071,0,7.989,2.63,10.028,6.615
	c1.957,3.809,1.878,8.887,1.878,13.145v25.916c0,0.827-0.666,1.493-1.504,1.545h-3.689c-0.79-0.026-1.441-0.591-1.542-1.336v-26.121
	c0-3.079,0.146-6.346-1.104-9.152c-1.28-2.874-3.719-4.662-6.342-4.793c-2.922,0.146-5.613,2.271-7.353,5.16
	c-2.271,3.712-2.193,7.061-2.193,11.416v23.51c-0.108,0.711-0.722,1.272-1.489,1.325h-3.667c-0.868-0.026-1.572-0.707-1.572-1.549
	l-0.015-27.641c0-2.529-0.161-5.519-1.328-7.79c-1.351-2.608-3.787-4.296-6.335-4.43c-2.638,0.146-5.313,2.163-6.9,4.516
	c-2.032,2.993-2.425,6.709-2.425,10.526v24.823c0,0.827-0.666,1.493-1.504,1.545h-3.689v-0.012L390.036,257.057L390.036,257.057z"/>
<path d="M364.757,257.963c-11.906,0-17.238-12.146-17.238-24.292c0-12.774,6.271-23.831,18.256-23.831h0.299h0.337
	c11.663,0,17.467,11.779,17.467,23.929c0,12.868-6.432,24.198-18.488,24.198l-0.307-0.004L364.757,257.963z M365.633,252.066
	c3.91-0.123,7.001-2.552,8.834-6.608c1.639-3.633,1.949-7.798,1.949-11.787c0-4.348-0.468-8.879-2.5-12.591
	c-1.826-3.255-4.969-5.313-8.311-5.437c-3.704,0.138-7.008,2.645-8.688,6.522c-1.482,3.353-1.949,7.794-1.949,11.506
	c0,4.165,0.546,8.973,2.271,12.599C358.916,249.704,362.141,251.942,365.633,252.066z"/>
<path d="M327.552,251.882c5.336-0.168,8.142-4.449,9.31-9.998c0.228-0.696,0.752-1.231,1.542-1.231l3.529-0.011
	c0.834,0.041,1.601,0.681,1.542,1.459c-1.639,9.444-7.338,15.861-15.472,15.861l-0.322-0.004l-0.307,0.004
	c-11.824,0-16.917-11.876-16.917-23.929c0-11.962,5.167-24.198,16.999-24.198h0.307h0.329c8.206,0,14.062,6.32,15.334,15.779
	c0,0.703-0.659,1.317-1.433,1.411l-3.697-0.045c-0.775-0.109-1.28-0.782-1.396-1.523c-0.891-5.276-3.925-9.467-8.973-9.635
	c-8.037,0.254-10.335,10.159-10.335,17.759C317.588,240.919,319.504,251.617,327.552,251.882z"/>
<path d="M64.419,249.151c-1.534-2.118-3.173-3.839-3.173-7.775V228.31c0-5.545,0.397-10.627-3.682-14.447
	c-3.222-3.087-8.557-4.176-12.643-4.176c-7.989,0-16.898,2.982-18.769,12.853c-0.191,1.048,0.569,1.594,1.257,1.755l8.127,0.876
	c0.767-0.037,1.317-0.786,1.463-1.542c0.703-3.401,3.547-5.04,6.746-5.04c1.732,0,3.693,0.64,4.715,2.181
	c1.175,1.725,1.014,4.082,1.014,6.08v1.093c-4.868,0.543-11.225,0.909-15.779,2.904c-5.257,2.271-8.947,6.907-8.947,13.714
	c0,8.722,5.493,13.085,12.554,13.085c5.968,0,9.235-1.411,13.833-6.103c1.527,2.204,2.024,3.282,4.808,5.59
	c0.629,0.341,1.433,0.299,1.987-0.198l0.026,0.022c1.676-1.493,4.722-4.135,6.432-5.568
	C65.077,250.823,64.954,249.918,64.419,249.151z M47.895,245.379c-1.328,2.361-3.45,3.817-5.804,3.817
	c-3.222,0-5.108-2.455-5.108-6.088c0-7.147,6.417-8.449,12.483-8.449v1.819C49.466,239.744,49.545,242.472,47.895,245.379z"/>
<path d="M174.422,249.151c-1.534-2.118-3.173-3.839-3.173-7.775V228.31c0-5.545,0.397-10.627-3.682-14.447
	c-3.222-3.087-8.557-4.176-12.643-4.176c-7.989,0-16.898,2.982-18.769,12.853c-0.191,1.048,0.569,1.594,1.257,1.755l8.127,0.876
	c0.767-0.037,1.317-0.786,1.463-1.542c0.703-3.401,3.547-5.04,6.746-5.04c1.732,0,3.693,0.64,4.715,2.181
	c1.175,1.725,1.014,4.082,1.014,6.08v1.093c-4.868,0.543-11.225,0.909-15.779,2.904c-5.257,2.271-8.947,6.907-8.947,13.714
	c0,8.722,5.493,13.085,12.554,13.085c5.968,0,9.235-1.411,13.833-6.103c1.527,2.204,2.024,3.282,4.808,5.59
	c0.629,0.341,1.433,0.299,1.987-0.198l0.026,0.022c1.676-1.493,4.722-4.135,6.432-5.568
	C175.08,250.823,174.957,249.918,174.422,249.151z M157.898,245.379c-1.328,2.361-3.45,3.817-5.804,3.817
	c-3.222,0-5.108-2.455-5.108-6.088c0-7.147,6.417-8.449,12.483-8.449v1.819C159.47,239.744,159.548,242.472,157.898,245.379z"/>
<g>
</g>
<g>
</g>
<g>
</g>
<g>
</g>
<g>
</g>
<g>
</g>
<g>
</g>
<g>
</g>
<g>
</g>
<g>
</g>
<g>
</g>
<g>
</g>
<g>
</g>
<g>
</g>
<g>
</g>
</svg>
