<svg enable-background="new 0 0 110 110" height="50" viewBox="0 0 110 110" width="50" xmlns="http://www.w3.org/2000/svg"><path d="m74.042778 24.590216h6.165136v8.387453h-6.165136z" fill="#f7be56"/><path d="m82.0947876 47.9449997v-16.2391434l-.9903107-.5423469-3.9791336.7871895-3.979126-.7871895-.1703033.0932579v16.6882324z" fill="#d5d6db"/><path d="m87.3750534 34.9944954c-.4739685-.5215645-1.0316925-.961277-1.6503448-1.3001099l-3.9707413-2.1757202-.6491089-.3559723-.3788147.0742512c-.2607651 2.0881672-1.2639236 9.1978092-3.5976562 16.113306-2.3337021-6.9135895-3.338768-14.0213509-3.5995407-16.1114006l-.3826218-.0761566-.6395721.3502522-3.9821625 2.1814404c-.6186523.3388329-1.1763763.7785454-1.6484604 1.3001099-1.0602646 1.1668396-1.6465454 2.6858635-1.6465454 4.2619781v7.4905815c0 1.2467003 1.010643 2.2573509 2.2573471 2.2573509h19.27742c1.2467041 0 2.2573471-1.0106506 2.2573471-2.2573509v-7.4905815c0-1.5761147-.5862808-3.0951386-1.6465454-4.2619782z" fill="#d5d6db"/><path d="m78.7800751 33.4039345-.8263016-1.4312229-.8284302-.0220127-.8241958.0220127-.8263245 1.4312229.8099213 1.4028282-.8964844 11.7084351 1.6549148 2.1686706 1.7369004-2.0279999-.8101273-11.8487243z" fill="#e56353"/><path d="m80.2079086 29.5891399-3.0825653 2.3615609 2.5621948 3.3061809 1.4169388-4.0933685z" fill="#ebf0f3"/><path d="m74.042778 29.5891399 3.0825653 2.3615609-2.5621948 3.3061809-1.4169388-4.0933685z" fill="#ebf0f3"/><g fill="#fcd462"><ellipse cx="81.573" cy="23.978" rx="1.616" ry=".584" transform="matrix(.067 -.998 .998 .067 52.168 103.756)"/><ellipse cx="72.474" cy="23.16" rx=".584" ry="1.218" transform="matrix(.997 -.072 .072 .997 -1.471 5.244)"/><path d="m81.6473694 24.4409523-.181694-5.3630619-.63591-1.729208-3.7162934-1.0024414-3.716301 1.0024414-.63591 1.729208-.6928253 2.5716324.0883179 2.6960258s.2108536 1.3985748.6953506 2.3508949c.4845047.9523182.9387283 1.3871899 1.5746384 2.0218296s1.4671555.8314266 2.6867294.8708668c1.219574-.0394402 2.0508194-.236227 2.6867294-.8708668s1.090126-1.0695114 1.5746307-2.0218296c.4845048-.95232.2725373-2.2554912.2725373-2.2554912z"/></g><path d="m82.7952347 17.7994576c-.5751648-.611208-.4154358-1.5441265-1.5657272-2.2518215-1.1502075-.707696-2.044838-.5146799-2.3004913 0 0 0-1.4698029-1.2867432-3.1631851-1.0615654-1.693512.2251778-1.4698029.804225-2.5881424 1.4797592-1.1183472.6755772-1.6614838 1.4797592-1.9170532 2.5091629-.255661 1.0294018.1916733.611208 0 1.4154339-.1917267.8042259-.2247925 1.6066399-.0812302 2.4448376.1413269.8249207 1.0150528 2.9170094 1.0150528 2.9170094l.2846298-.0090542s-.2645874-.6702309-.3372269-1.8100452c.0968704-.1862907-.008667-.2466488.2546616-.2043552.3134308.0503139.7187805 1.5533962.6809235 1.6792431l.1897812-.0290146s.1043777-1.6225071-.4433289-2.4056492c-.4936371-.705843-.1826248-1.7628803-.1850357-2.6804924.2629852-.4682045.6319046-.4227638 1.2737198-.4815273 1.0544128-.0964851 2.2047043-1.1258888 2.300499-1.0937271.0959244.0321636 1.7574081.9650803 2.6520386.3860321 0 0 2.332489-.2895451 1.9170914 1.704937-.41539 1.994482 0 2.8951931 0 3.2812252 0 .2000427.1997223.7284756.2368011 1.1930161h.3042679c.1795197-.6685066.4370728-1.5344257.6092224-1.7077389.2875671-.2895031.3833618 1.1902561 0 2.0588055-.1123047.2542801-.2683334.3937931-.3593445.5053692l.4502716.0275059c.2453537-.6114254.5929337-1.510931.8037109-2.2056484.3514557-1.1580524.4153442-1.6084518.4473343-3.0238857.0319442-1.4153923.0958404-2.0266022-.4792405-2.637812z" fill="#3a556a"/><path d="m20.764942 24.590214h6.165136v8.387453h-6.165136z" fill="#f7be56"/><path d="m34.0972443 34.9944916c-.4739609-.5215683-1.0316849-.9612732-1.6503525-1.3001099l-3.9707699-2.1757336-.6490974-.3559685-.3788013.0742683c-.0000477.0004501-.0001411.0010185-.0001888.0014668l-3.6005325.7122707-3.5964642-.7114658c0-.0001183 0-.0002594 0-.0003777l-.3826351-.0761623-.6395855.3502674-3.9821253 2.1814346c-.6186705.3388367-1.1763916.7785416-1.6484623 1.3001099-1.0602665 1.166832-1.6465693 2.6858711-1.6465693 4.261982v7.4905701c0 1.2467117 1.0106745 2.2573624 2.2573366 2.2573624h19.2774353c1.2467079 0 2.2573357-1.0106506 2.2573357-2.2573624v-7.4905701c-.000001-1.5761108-.5862551-3.09515-1.6465235-4.2619819z" fill="#d5d6db"/><path d="m25.502243 33.4039345-.8263034-1.4312229-.8284264-.0220127-.8242016.0220127-.8263244 1.4312229.8099269 1.4028282-.8432178 11.3592453 1.6840172 2.3746796 1.6767978-2.3949547-.8323974-11.3385887z" fill="#dc8744"/><path d="m26.9300785 29.5891399-3.0825691 2.361559 2.5621967 3.3061828 1.4169369-4.0933685z" fill="#ebf0f3"/><path d="m20.7649422 29.5891399 3.0825672 2.361559-2.5621948 3.3061828-1.4169369-4.0933685z" fill="#ebf0f3"/><ellipse cx="28.475" cy="23.16" fill="#fcd462" rx="1.218" ry=".584" transform="matrix(.072 -.997 .997 .072 3.337 49.905)"/><ellipse cx="19.196" cy="23.16" fill="#fcd462" rx=".584" ry="1.218" transform="matrix(.997 -.072 .072 .997 -1.608 1.433)"/><path d="m28.3695335 24.4409523-.1816902-5.3630619-.63591-1.729208-3.7162971-1.0024414-3.7162971 1.0024414-.63591 1.729208-.1816902 5.3630619s-.2119656 1.3031712.2725353 2.2554893c.4845028.9523201.9387226 1.3871918 1.5746326 2.0218315s1.4671555.8314266 2.6867294.8708668c1.2195759-.0394402 2.0508213-.236227 2.6867313-.8708668s1.0901299-1.0695114 1.5746326-2.0218315c.4845009-.9523181.2725334-2.2554893.2725334-2.2554893z" fill="#fcd462"/><path d="m19.5278397 21.3130436c0-.2370071.2666321-3.2282791.2666321-3.2282791l7.9693489.3841991.1185036 5.0391502h.2666321s.2961597-2.1118431.3413467-2.1524105c.3011646-.27038.5166912-.6258106.5509834-1.0290813.0711021-.8361607.0142212-2.0946655-.7145748-3.1611958-1.2146587-1.7775497-4.3253708-1.8368015-7.0509472-1.8664274 0 0-1.6294212-.6813936-1.7479248-1.5109177 0 0-1.5405426-.4740133-1.4516659 2.7552023s.9184017 5.1252689.9184017 5.1252689.1777534.5332661.2370052 1.2146587l.2370071-.0592518z" fill="#3a556a"/><path d="m46.74239 40.010922h7.656772v10.416771h-7.656772z" fill="#f7be56"/><path d="m56.7425652 69.0163193v-20.1681481l-1.2299118-.6735649-4.9418717.9776459-4.9418716-.9776459-.2115021.1158219v20.7258911z" fill="#d5d6db"/><path d="m63.3003731 52.9324837c-.5886421-.6477547-1.2813072-1.1938515-2.0496368-1.614666l-4.9314537-2.7021255-.8061638-.4421005-.470459.0922165c-.323864 2.5933914-1.5697289 11.4231911-4.4680977 20.0118713-2.8983383-8.5863113-4.1465759-17.4137726-4.4704399-20.0095062l-.475193-.0945816-.794323.4349937-4.9456367 2.7092323c-.7683296.4208145-1.4609947.9669113-2.0472946 1.614666-1.3167953 1.4491577-2.0449257 3.3357048-2.0449257 5.2931519v9.302906c0 1.5483398 1.2551727 2.8035049 2.8035088 2.8035049h23.941532c1.548336 0 2.8035088-1.2551651 2.8035088-2.8035049v-9.302906c0-1.9574471-.7281342-3.8439942-2.0449257-5.2931519z" fill="#2f4859"/><path d="m52.6258698 50.9570961-1.0262261-1.777504-1.028862-.0273399-1.023613.0273399-1.0262527 1.777504 1.0058861 1.7422333-1.0058861 12.5577659 2.052475 3.8645554 2.0524788-3.7226181-1.0061379-12.6992264z" fill="#27a2db"/><path d="m54.3991623 46.2193222-3.8283844 2.93293 3.1821098 4.1061058 1.7597618-5.0837479z" fill="#ebf0f3"/><path d="m46.7423897 46.2193222 3.8283882 2.93293-3.1821137 4.1061058-1.759758-5.0837479z" fill="#ebf0f3"/><path d="m56.5840454 54.8190155-.2647743-6.2033272-1.1867676-1.1087494s-.0283699.2671432-.0898361.7588577c-.3238792 2.5933952-1.5697479 11.4232025-4.4681053 20.0118828-2.8983421-8.5863152-4.1465797-17.4137688-4.4704552-20.0095177-.0614662-.4917297-.0898361-.7612228-.0898361-.7612228l-1.1796684 1.1016502-.0070992.0070992-.2647743 6.2033272 1.0709305 1.0732841-.3947983 1.8085213c.8770638 3.9763718 5.3346481 11.4208374 5.3346481 11.4208374s4.4573402-7.4444656 5.3344002-11.4208374l-.3947945-1.8085213z" fill="#3a556a"/><ellipse cx="56.318" cy="38.235" fill="#fcd462" rx="1.513" ry=".725" transform="matrix(.072 -.997 .997 .072 14.152 91.673)"/><ellipse cx="44.794" cy="38.235" fill="#fcd462" rx=".725" ry="1.513" transform="matrix(.997 -.072 .072 .997 -2.621 3.302)"/><path d="m56.1868896 39.8255463-.225647-6.6606369-.7897682-2.1475868-4.6154442-1.244978-4.6154442 1.244978-.7897644 2.1475868-.2256508 6.6606369s-.2632523 1.6184692.3384743 2.8012009c.6017265 1.1827278 1.165844 1.7228165 1.9556084 2.5110054.7897682.7881889 1.8221321 1.0325851 3.3367767 1.0815697 1.5146484-.0489845 2.5470123-.2933807 3.3367767-1.0815697.7897682-.7881889 1.3538857-1.3282776 1.9556084-2.5110054.6017266-1.1827317.3384743-2.8012009.3384743-2.8012009z" fill="#fcd462"/><path d="m56.9293633 31.5603447c-.6115685-1.7512627-1.528904-1.7234707-1.528904-1.7234707-1.2509346-1.8902664-5.0036087-1.3621063-6.4730949-1.1953068-1.4694481.1667747-3.3951569 1.6400719-4.3403091 4.169693-.9451523 2.5295982-.3891335 3.8917046 0 4.6700401.0129089.0257912.0274239.0478745.0407257.0728798.1148758.9767876.2347221 1.8361893.2910995 2.2294083.0187569.1306992.1306839.2273331.2627182.2273331h.1129227c.1466103 0 .265461-.1188507.265461-.2654572v-.641304c0-.1824532-.0224457-.4793587-.043766-.6605568-.058342-.4959755.043766-1.1290779.043766-1.1290779 0 .2501717.3243065.3891563.3243065.3891563-.0809288-.5342979.0078392-1.6624336.0315666-2.031723.002121.011097.0031052.0182724.0054855.0302849.0834007.4169502.5559921.8061295.5559921.8061295-.1389923-.4169731 0-1.7790756 0-1.7790756.194603.3057823.3891716.7227516.3891716.7227516.1667938-1.1119118.3057327-1.5566711.3057327-1.5566711.0556259.3613625.1668053.5003471.1668053.5003471.1112022-.5559578.3335838-.8617363.3335838-.8617363.0555878.47258.2779694.3891792.2779694.3891792s-.0277748-.4447632.250206-1.111908c.2779579-.6671677.8895264-.3613892 1.9736137-.2501984 1.0841446.1111908 3.6137352.1111908 3.6137352.1111908 1.0007401-.2779655 1.7790604 2.4740181 2.0848846 4.4754753.2011375 1.3167458.1255875 2.1401901.0503502 2.5494957-.0300293.1633568.0948753.3136978.2609673.3136978.1200867 0 .2258301-.0803566.2563553-.1964951.055027-.209362.1331367-.6089439.1828308-1.3045959.0833931-1.1675148.5559731-2.2516327.6671829-3.0855713.1111717-.8339461.2501945-2.1126517-.3613586-3.8639144z" fill="#3a556a"/><path d="m67.922218 63.631771h6.18343v11.14031h-6.18343z" fill="#2f4859" transform="matrix(.707 -.707 .707 .707 -28.134 70.483)"/><g fill="#ebf0f3"><path d="m66.4461441 64.6337051c-2.6488457 2.6488495-5.7780113 4.5136032-9.1120529 5.5872803-7.9394722 2.5852585-17.0161705.7205048-23.3239555-5.5872803-6.4773445-6.4773483-8.2714825-15.8648491-5.3754272-23.9526711 1.1019192-3.1009254 2.8960991-6.004055 5.3754272-8.4833832 8.9566307-8.9566307 23.4793777-8.9566307 32.4360085 0s8.9566344 23.4793779-.0000001 32.4360543z" opacity=".25"/><path d="m57.3340912 70.2209854c-7.9394722 2.5852585-17.0161705.7205048-23.3239555-5.5872803-6.4773445-6.4773483-8.2714825-15.8648491-5.3754272-23.9526711 7.9395142-2.5852547 17.0162163-.7205009 23.3240013 5.5943527 6.4773025 6.4773484 8.2714805 15.8648492 5.3753814 23.9455987z" opacity=".25"/><path d="m45.2101402 51.3866653c-2.1520576-2.1544762-4.9334793-3.2974358-7.7527924-3.4288445-2.6396217-.1230888-4.891964 1.947876-4.8779526 4.5903435.0157814 2.9838791 1.1626244 5.962841 3.4394493 8.239624 2.1521454 2.1521873 4.9337807 3.2943344 7.7532272 3.4253922 2.639492.1227036 4.8920021-1.9480896 4.8775177-4.5903854-.016384-2.9819374-1.1632689-5.9599075-3.4394492-8.2361298z" opacity=".25"/></g><path d="m31.5764294 29.7643929c-10.3041 10.3041-10.3041306 27.0064278-.0050316 37.3055229 10.3040981 10.3041 27.0064564 10.3041 37.3105621 0 10.2990952-10.2990952 10.3040695-27.006424-.0000305-37.310524-10.2991047-10.299099-27.006403-10.2940998-37.3055.0050011zm33.6393909 33.6393928c-8.2812462 8.2812424-21.6970406 8.2812424-29.9782867 0-8.276247-8.2762489-8.2812462-21.6970444 0-29.9782906 8.2762451-8.2762451 21.7020416-8.2762451 29.9782867 0 8.28125 8.2812462 8.2762451 21.7020417 0 29.9782906z" fill="#3a556a"/><path d="m74.3439178 65.8719406-6.6599731 6.6599731c-.5751648.5751648-.5751648 1.5076523 0 2.0828171l21.1902542 21.1902542c.5751343.5751343 1.5076218.5751343 2.0827866-.0000305l6.6599731-6.6599731c.5751648-.5751724.5751648-1.5076523.0000305-2.0827866l-21.1902542-21.1902542c-.5751648-.5751724-1.5076523-.5751724-2.0828171 0z" fill="#3a556a"/><path d="m75.871742 70.483299h1.371546v18.03816h-1.371546z" fill="#ebf0f3" transform="matrix(.707 -.707 .707 .707 -33.793 77.42)"/><path d="m85.750008 87.324081h1.371546v4.113111h-1.371546z" fill="#ebf0f3" transform="matrix(.707 -.707 .707 .707 -37.885 87.298)"/></svg>