<svg xmlns="http://www.w3.org/2000/svg"  viewBox="0 0 30 30" width="30px" height="30px"><path fill="#fff1e8" d="M6,27.5c-1.93,0-3.5-1.57-3.5-3.5V6c0-1.93,1.57-3.5,3.5-3.5h18c1.93,0,3.5,1.57,3.5,3.5v18 c0,1.93-1.57,3.5-3.5,3.5H6z"/><path fill="#a16a4a" d="M24,3c1.654,0,3,1.346,3,3v18c0,1.654-1.346,3-3,3H6c-1.654,0-3-1.346-3-3V6c0-1.654,1.346-3,3-3 H24 M24,2H6C3.791,2,2,3.791,2,6v18c0,2.209,1.791,4,4,4h18c2.209,0,4-1.791,4-4V6C28,3.791,26.209,2,24,2L24,2z"/><path fill="#a16a4a" d="M28,9H2V8c0-3.314,2.686-6,6-6h14c3.314,0,6,2.686,6,6V9z"/><path fill="#b0c1d4" d="M23 4H26V7H23z"/><path fill="#f78f8f" d="M5 3H7V9H5z"/><path fill="#ffeea3" d="M7 3H9V9H7z"/><path fill="#bae0bd" d="M9 3H11V9H9z"/><path fill="#8bb7f0" d="M11 3H13V9H11z"/><path fill="#fff1e8" d="M15 8A8 8 0 1 0 15 24A8 8 0 1 0 15 8Z"/><path fill="#b0c1d4" d="M15 9.5A6.5 6.5 0 1 0 15 22.5A6.5 6.5 0 1 0 15 9.5Z"/><path fill="#66798f" d="M15,10c3.308,0,6,2.692,6,6s-2.692,6-6,6s-6-2.692-6-6S11.692,10,15,10 M15,9c-3.866,0-7,3.134-7,7 s3.134,7,7,7s7-3.134,7-7S18.866,9,15,9L15,9z"/><path fill="#66798f" d="M15 14A2 2 0 1 0 15 18A2 2 0 1 0 15 14Z"/></svg>