<svg viewBox="0 0 512 512" xmlns="http://www.w3.org/2000/svg"><circle cx="256" cy="256" fill="#7cc8fb" r="256"/><path d="m477.39 250.14h34.54c-.09-4.23-.29-8.45-.59-12.63h-33.95v-110.11a254 254 0 0 0 -19.1-28.3h-41.9v-37.6h-12.63v37.6h-53.39v12.64h53.39v125.77h-61.76v-15.63h14.3v-12.64h-34.65v-67.8h34.65v-12.63h-34.65v-75.69h-12.65v75.69h-27.35v-75.7h-12.65v75.7h-27.35v-75.7h-12.65v75.7h-27.35v-75.69h-12.65v75.69h-35.6v12.63h35.6v67.8h-35.6v12.64h35.6v15.63h-82.1v-125.77h53.38v-12.64h-53.37v-37.6h-12.64v37.6h-40.56a254.85 254.85 0 0 0 -20.44 30.62v107.79h-32.61c-.3 4.18-.5 8.4-.59 12.63h33.2v120h-6.49a255 255 0 0 0 19.13 32.2v-19.59h48.36v37.61h12.64v-37.61h82.09v76.15h12.64v-76.15h27.36v76.14h12.64v-76.14h27.36v76.14h12.64v-76.14h27.36v76.15h12.64v-76.15h82.11v37.61h12.63v-37.61h48.37v21.45q6.75-9.48 12.63-19.6v-1.85h1.07q3.56-6.21 6.76-12.64h-7.83zm-383.12 120h-48.36v-120h48.36zm0-132.6h-48.36v-125.8h48.36zm94.73 52.14h-35.6v12.64h35.6v67.79h-82.1v-120h82.1zm52.64-148.24h27.36v67.8h-27.35zm0 80.44h27.36v67.8h-27.35zm-40-80.44h27.36v67.8h-27.35zm0 80.44h27.36v15.63h-27.35zm0 28.26h27.36v39.54h-27.35zm27.36 120h-27.35v-20.08h27.35zm40 0h-27.35v-20.08h27.35zm40 0h-27.35v-20.08h27.35zm0-32.69h-107.35v-35.1h107.35zm0-128.18h-27.35v-67.8h27.35zm94.75 160.87h-82.1v-67.82h34.65v-12.64h-14.3v-39.54h61.75zm61 0h-48.36v-120h48.37zm0-132.6h-48.36v-125.8h48.37z" fill="#3e436d"/><path d="m304.96 209.24h37.06v93.07h-37.06z" fill="#4f4f74"/><g fill="#32314b"><path d="m143.29 62.77v386.47a9.66 9.66 0 0 0 9.65 9.66h204.7a9.66 9.66 0 0 0 9.65-9.66v-386.47a9.65 9.65 0 0 0 -9.65-9.65h-204.7a9.65 9.65 0 0 0 -9.65 9.65zm198.71 370.85h-173.43v-355.22h173.43z"/><circle cx="283.96" cy="232.84" r="6.33"/><circle cx="327.46" cy="232.84" r="6.33"/><circle cx="283.96" cy="279.17" r="6.33"/><circle cx="327.46" cy="279.17" r="6.33"/><path d="m315.13 270.53-6.22-14.19a9.84 9.84 0 1 0 -7.9 0l-6.23 14.19a2.36 2.36 0 0 0 2.16 3.31h16a2.36 2.36 0 0 0 2.19-3.31z"/></g></svg>