<svg viewBox="0 0 512 512" xmlns="http://www.w3.org/2000/svg"><circle cx="256" cy="256" fill="#3586cb" r="256"/><path d="m324.84 53.53v331.89a6.91 6.91 0 0 1 -6.91 6.91h-229.5a6.91 6.91 0 0 1 -6.91-6.91v-279.69l59.12-59.11h177.29a6.91 6.91 0 0 1 6.91 6.91z" fill="#ccc"/><path d="m140.64 46.62v32.06a27.05 27.05 0 0 1 -27.06 27.05h-32.06z" fill="#e2e2e2"/><path d="m364.29 76.11v331.89a6.95 6.95 0 0 1 -6.91 6.91h-229.51a6.92 6.92 0 0 1 -6.87-6.91v-279.68l59.08-59.12h177.3a6.92 6.92 0 0 1 6.91 6.91z" fill="#fff"/><g fill="#3e436d"><path d="m324.84 187.34h-170.37a4.85 4.85 0 0 1 0-9.7h170.37a4.85 4.85 0 1 1 0 9.7z"/><path d="m242.92 216.31h-88.45a4.86 4.86 0 0 1 0-9.71h88.45a4.86 4.86 0 0 1 0 9.71z"/><path d="m324.84 216.31h-66.53a4.86 4.86 0 0 1 0-9.71h66.53a4.86 4.86 0 0 1 0 9.71z"/><path d="m324.84 277.32h-91.84a4.85 4.85 0 1 1 0-9.7h91.81a4.85 4.85 0 0 1 0 9.7z"/><path d="m283.88 140.44h-88.45a4.85 4.85 0 1 1 0-9.7h88.45a4.85 4.85 0 1 1 0 9.7z"/><path d="m324.84 248.36h-170.37a4.86 4.86 0 0 1 0-9.71h170.37a4.86 4.86 0 0 1 0 9.71z"/><path d="m214.59 277.47h-60.12a5 5 0 0 1 0-10h60.12a5 5 0 1 1 0 10z"/><path d="m324.84 309.37h-170.37a4.85 4.85 0 1 1 0-9.7h170.37a4.85 4.85 0 1 1 0 9.7z"/><path d="m242.92 338.34h-88.45a4.86 4.86 0 0 1 0-9.71h88.45a4.86 4.86 0 0 1 0 9.71z"/></g><path d="m180.08 69.21v32.06a27 27 0 0 1 -27.08 27.05h-32z" fill="#e2e2e2"/><path d="m187.9 393.24h-.43a4.88 4.88 0 0 1 -3.65-2.21l-6.21-9.65-7.42 4.4a4.84 4.84 0 0 1 -4.76.11 45.57 45.57 0 0 1 -4.77-2.91 37.29 37.29 0 0 1 -3.55 2.7 4.85 4.85 0 0 1 -5.3-8.13s.83-.55 2-1.48a13.69 13.69 0 0 1 -2.15-7.29c0-10.06 11.31-16.46 12.61-17.16a4.84 4.84 0 0 1 6.73 2.38c3.56 8.59.53 16.19-3.6 21.8l.24.15 9-5.35a4.86 4.86 0 0 1 6.56 1.55l5.35 8.32 6.54-7.05a4.84 4.84 0 0 1 5-1.32l9.83 3.16h18.16a4.86 4.86 0 1 1 0 9.71h-18.83a4.74 4.74 0 0 1 -1.49-.24l-7.61-2.45-8.69 9.38a4.85 4.85 0 0 1 -3.56 1.58z" fill="#3e436d"/><path d="m426.31 407-22.12-80.66s0 0 0-.05-.05-.13-.08-.19a.77.77 0 0 0 -.11-.1c0-.05-.07-.1-.1-.16l-.11-.15-.12-.13-.13-.13-.15-.1-.16-.1-.16-.07-.19-.08h-.05-.11-.21-.37-.21-.11-.05l-.19.08-.16.07-.15.1-.16.11-.12.12-.13.13-.11.15c0 .05-.07.1-.1.16a.77.77 0 0 0 -.07.16c0 .06-.05.12-.08.19s0 0 0 .05l-22.1 80.6a1.91 1.91 0 0 0 1.33 2.34 2.24 2.24 0 0 0 .51.07 1.92 1.92 0 0 0 1.84-1.41l20.28-74 20.27 74a1.92 1.92 0 0 0 1.84 1.41 2.24 2.24 0 0 0 .51-.07 1.91 1.91 0 0 0 1.33-2.34z" fill="#f6c752"/><path d="m378.52 406.65h47.67a2.48 2.48 0 0 1 2.48 2.48v5.31a22.47 22.47 0 0 1 -22.47 22.46h-7.69a22.47 22.47 0 0 1 -22.51-22.46v-5.31a2.48 2.48 0 0 1 2.52-2.48z" fill="#e5a82e"/><path d="m406.14 436.9h-7.63a22.47 22.47 0 0 1 -22.51-22.47v-5.3a2.48 2.48 0 0 1 2.48-2.48h7.63a2.48 2.48 0 0 0 -2.48 2.48v5.3a22.47 22.47 0 0 0 22.51 22.47z" fill="#cc9129"/><path d="m321.59 407-22.12-80.66s0 0 0-.05-.05-.13-.07-.19l-.07-.16c0-.05-.07-.1-.1-.16l-.11-.15-.13-.13a1.59 1.59 0 0 0 -.13-.13l-.15-.1-.15-.1-.16-.07-.2-.08h-.2-.2-.37-.21-.11-.05l-.19.08-.16.07-.16.1-.15.11a.74.74 0 0 0 -.13.12l-.13.13-.1.15a.86.86 0 0 0 -.1.16.77.77 0 0 0 -.07.16 1.08 1.08 0 0 0 -.08.19s0 0 0 .05l-22.12 80.66a1.91 1.91 0 0 0 1.34 2.34 2.23 2.23 0 0 0 .5.07 1.91 1.91 0 0 0 1.84-1.41l20.28-74 20.28 74a1.91 1.91 0 0 0 1.84 1.41 2.08 2.08 0 0 0 .5-.07 1.91 1.91 0 0 0 1.34-2.34z" fill="#f6c752"/><path d="m382.51 452.16h-6.85v-8.49a4.42 4.42 0 0 0 -4.41-4.42h-42.68a4.43 4.43 0 0 0 -4.42 4.42v8.49h-6.84a5.12 5.12 0 0 0 -.56 0 5.33 5.33 0 0 0 -4.81 5.35v5a3 3 0 0 0 2.95 2.95h70a3 3 0 0 0 3-2.95v-5a5.36 5.36 0 0 0 -5.38-5.35z" fill="#cc9129"/><path d="m408.67 323.1h-52.67v-15a6.1 6.1 0 1 0 -12.2 0v15h-52.65a3.79 3.79 0 0 0 0 7.57h52.66v108.58h12.19v-108.58h52.66a3.79 3.79 0 0 0 0-7.57z" fill="#e5a82e"/><circle cx="349.91" cy="326.88" fill="#f6c752" r="12.2"/><circle cx="349.91" cy="326.88" fill="#ffe5a4" r="8.01"/><path d="m273.8 406.65h47.67a2.48 2.48 0 0 1 2.48 2.48v5.31a22.47 22.47 0 0 1 -22.47 22.47h-7.69a22.47 22.47 0 0 1 -22.47-22.47v-5.31a2.48 2.48 0 0 1 2.48-2.48z" fill="#e5a82e"/><path d="m301.41 436.9h-7.62a22.47 22.47 0 0 1 -22.47-22.47v-5.3a2.48 2.48 0 0 1 2.48-2.48h7.62a2.48 2.48 0 0 0 -2.47 2.48v5.3a22.47 22.47 0 0 0 22.46 22.47z" fill="#cc9129"/></svg>