<svg id="Layer_35" enable-background="new 0 0 64 64" height="512" viewBox="0 0 64 64" width="512" xmlns="http://www.w3.org/2000/svg" xmlns:xlink="http://www.w3.org/1999/xlink"><linearGradient id="SVGID_1_" gradientUnits="userSpaceOnUse" x1="32" x2="32" y1="63" y2="1"><stop offset="0" stop-color="#9f2fff"/><stop offset="1" stop-color="#0bb1d3"/></linearGradient><path d="m59.781 1h-27.562l-3.083 12.333c-.09.363-.136.735-.136 1.105 0 1.566.794 2.949 2 3.771v9.633c-.222.183-.424.391-.6.625l-5.2 6.933c-1.134 1.511-2.721 2.601-4.489 3.164.504-.516.938-1.102 1.291-1.748 1.16-.416 1.998-1.515 1.998-2.816v-2c0-1.301-.838-2.4-1.998-2.815-1.393-2.549-4.085-4.185-7.002-4.185-4.411 0-8 3.589-8 8 0 2.498 1.152 4.73 2.951 6.199-5.088.963-8.951 5.436-8.951 10.801v13h23v-17.245c2.493-.792 4.699-2.354 6.273-4.454l3.226-4.301h27.501v-18.791c1.206-.822 2-2.205 2-3.771 0-.37-.046-.742-.137-1.106zm.938 12h-5.872l-1.667-10h5.038zm-2.281 4h-.877c-1.219 0-2.238-.858-2.495-2h5.867c-.257 1.142-1.276 2-2.495 2zm-27.372-2h5.867c-.257 1.142-1.276 2-2.495 2h-.877c-1.218 0-2.237-.858-2.495-2zm13.934-2h-5.819l1.666-10h4.153zm2-10h4.153l1.666 10h-5.819zm-2.066 12c-.257 1.142-1.276 2-2.495 2h-.877c-1.219 0-2.238-.858-2.495-2zm8 0c-.257 1.142-1.276 2-2.495 2h-.877c-1.219 0-2.238-.858-2.495-2zm-19.153-12h5.038l-1.666 10h-5.873zm-17.801 50.605-.98.981-.98-.98.601-12.606h.759zm-6.98-20.605c0-.341.035-.674.09-1h5.91v2h-5.91c-.055-.326-.09-.659-.09-1zm6.78 3c.549.609 1.337 1 2.22 1h1.458c-1.123 1.248-2.742 2-4.458 2-2.215 0-4.149-1.21-5.188-3zm5.22-5c.552 0 1 .448 1 1v2c0 .552-.448 1-1 1h-3c-.552 0-1-.448-1-1v-2c0-.552.448-1 1-1zm-6-4c1.716 0 3.336.752 4.459 2h-1.459c-.883 0-1.67.391-2.22 1h-5.968c1.039-1.79 2.973-3 5.188-3zm13.674 13.102c-1.458 1.944-3.559 3.34-5.916 3.929l-.758.188v16.781h-14v-15h-2v15h-3v-11c0-4.963 4.037-9 9-9h.618l-.638 13.395 3.02 3.02 3.02-3.02-.638-13.395h.618c3.443 0 6.733-1.645 8.8-4.4l5.2-6.933c.313-.418.812-.667 1.333-.667.919 0 1.667.748 1.667 1.667v.444c0 .358-.118.713-.333 1zm26.326-5.102h-6v-10h6zm4 0h-2v-12h-10v12h-12.001l1.267-1.689c.473-.63.734-1.412.734-2.2v-.444c0-.89-.332-1.697-.861-2.333.513.411 1.155.666 1.861.666h4c1.654 0 3-1.346 3-3v-2c0-1.654-1.346-3-3-3h-4c-1.654 0-3 1.346-3 3v2c0 .706.255 1.348.666 1.861-.636-.529-1.443-.861-2.333-.861-.113 0-.221.029-.333.039v-8.096c.186.023.369.057.562.057h.877c1.448 0 2.725-.691 3.562-1.746.835 1.055 2.112 1.746 3.561 1.746h.877c1.448 0 2.725-.691 3.562-1.746.835 1.055 2.112 1.746 3.561 1.746h.877c1.448 0 2.725-.691 3.562-1.746.835 1.055 2.112 1.746 3.561 1.746h.877c.192 0 .375-.034.562-.057v16.057zm-22-9v-2c0-.552.448-1 1-1h4c.552 0 1 .448 1 1v2c0 .552-.448 1-1 1h-4c-.552 0-1-.448-1-1zm0 21h-3v10h3c1.654 0 3-1.346 3-3 0-.768-.29-1.469-.766-2 .476-.531.766-1.232.766-2 0-1.654-1.346-3-3-3zm0 8h-1v-2h1c.552 0 1 .448 1 1s-.448 1-1 1zm0-4h-1v-2h1c.552 0 1 .448 1 1s-.448 1-1 1zm10-4h2v6c0 2.206-1.794 4-4 4s-4-1.794-4-4v-6h2v6c0 1.103.897 2 2 2s2-.897 2-2zm10.857.515-2.857 4.762v4.723h-2v-4.723l-2.857-4.762 1.715-1.029 2.142 3.571 2.143-3.571zm-2.857-4.515h-25v11c0 3.859 3.141 7 7 7h18c3.859 0 7-3.141 7-7v-4c0-3.859-3.141-7-7-7zm5 11c0 2.757-2.243 5-5 5h-18c-2.757 0-5-2.243-5-5v-9h23c2.757 0 5 2.243 5 5z" fill="url(#SVGID_1_)"/></svg>