<svg id="Layer_1" enable-background="new 0 0 511.898 511.898" height="50" viewBox="0 0 511.898 511.898" width="50" xmlns="http://www.w3.org/2000/svg"><g><g><g><g><path d="m302.866 504.398h-93.953l9.995-88.695 36.106-20.703 37.857 20.703z" fill="#c1c0fa"/><path d="m292.871 415.703h-40l9.995 88.695h40z" fill="#b3b2fa"/><g><path d="m504.265 138.957c0-8.751-4.001-16.568-10.274-21.721l-14.311-6.375h-90.19-353.88c-15.517 0-28.096 12.579-28.096 28.095v209.189l248.166 20.855 248.585-20.854z" fill="#7561f6"/><path d="m493.991 117.236-14.311-6.375h-40l14.311 6.375c6.273 5.153 10.274 12.969 10.274 21.721v209.189h40v-209.189c0-8.752-4.001-16.569-10.274-21.721z" fill="#5e48f0"/><path d="m7.514 348.146v39.462c0 15.517 12.579 28.095 28.096 28.095h440.56c15.517 0 28.096-12.579 28.096-28.095v-39.462z" fill="#e9e8ff"/><path d="m464.265 348.146v39.462c0 15.517-12.579 28.095-28.096 28.095h40c15.517 0 28.096-12.579 28.096-28.095v-39.462z" fill="#dfdeff"/></g></g><g><path d="m158.364 272.797c-2.018-33.552-27.249-60.861-60.861-60.861-33.613 0-58.341 27.343-60.861 60.861-3.274 43.55 26.087 75.758 49.071 84.713l-8.184 8.184c-5.488 5.488-.087 14.684 7.379 12.564l3.245-.922c6.115-1.736 12.62-1.519 18.606.623l3.182 1.139c7.058 2.526 13.068-5.693 8.521-11.653l-7.934-10.4c-.018-.023-.009-.056.017-.068 22.61-9.644 50.389-41.454 47.819-84.18z" fill="#ffc600"/><path d="m158.364 272.797c-2.018-33.552-27.249-60.861-60.861-60.861-7.096 0-13.79 1.231-19.968 3.469 23.198 8.359 39.238 30.927 40.83 57.392 2.313 38.454-19.957 68.056-40.916 80.624 2.8 1.664 5.577 3.042 8.265 4.089l-8.184 8.184c-5.488 5.488-.087 14.684 7.379 12.564l3.245-.922c6.115-1.736 12.62-1.519 18.606.623l3.182 1.139c7.058 2.526 13.068-5.693 8.521-11.653l-7.934-10.4c-.018-.023-.009-.056.017-.068 22.609-9.644 50.388-41.454 47.818-84.18z" fill="#ffb300"/></g><g><g><path d="m504.223 68.361c-2.018-33.552-27.248-60.861-60.861-60.861s-58.341 27.343-60.861 60.861c-3.274 43.55 26.087 75.758 49.071 84.713l-8.184 8.184c-5.488 5.488-.087 14.684 7.379 12.564l3.245-.922c6.115-1.736 12.62-1.519 18.606.623l3.182 1.139c7.058 2.526 13.068-5.693 8.521-11.653l-7.934-10.4c-.018-.023-.009-.056.017-.068 22.611-9.644 50.389-41.453 47.819-84.18z" fill="#ff81e5"/><path d="m504.223 68.361c-2.018-33.552-27.248-60.861-60.861-60.861-7.096 0-13.79 1.231-19.968 3.469 23.198 8.359 39.238 30.927 40.83 57.392 2.313 38.454-19.957 68.056-40.916 80.624 2.8 1.665 5.577 3.042 8.265 4.089l-8.184 8.184c-5.488 5.488-.087 14.684 7.379 12.564l3.245-.922c6.115-1.736 12.62-1.519 18.606.623l3.182 1.139c7.059 2.526 13.068-5.693 8.521-11.653l-7.934-10.4c-.018-.023-.01-.056.017-.068 22.61-9.644 50.388-41.453 47.818-84.18z" fill="#ff68e0"/></g></g><g><g><path d="m446.427 375.028c-2.018-33.552-27.249-60.861-60.861-60.861-33.613 0-58.341 27.343-60.861 60.861-3.274 43.55 26.087 75.758 49.071 84.713l-8.184 8.184c-5.488 5.488-.087 14.684 7.379 12.564l3.245-.922c6.115-1.736 12.62-1.519 18.606.623l3.182 1.139c7.059 2.526 13.068-5.693 8.521-11.653l-7.934-10.4c-.018-.023-.009-.056.017-.068 22.61-9.644 50.389-41.454 47.819-84.18z" fill="#83f9d1"/><path d="m446.427 375.028c-2.018-33.552-27.249-60.861-60.861-60.861-7.096 0-13.79 1.231-19.968 3.469 23.198 8.359 39.238 30.927 40.83 57.392 2.313 38.454-19.957 68.056-40.916 80.624 2.8 1.664 5.577 3.042 8.265 4.089l-8.184 8.184c-5.488 5.488-.087 14.684 7.379 12.564l3.245-.921c6.115-1.737 12.62-1.519 18.606.623l3.182 1.139c7.058 2.526 13.068-5.693 8.521-11.653l-7.934-10.4c-.018-.023-.009-.056.017-.068 22.609-9.645 50.388-41.455 47.818-84.181z" fill="#32efaf"/></g></g><g><path d="m260.598 308.643-158.335-158.517c-7.295-7.304-11.479-17.148-11.673-27.47l-1.041-55.224c-.205-10.858 4.022-21.332 11.706-29.007l19.267-19.245c7.684-7.675 18.162-11.89 29.02-11.673l55.223 1.104c10.321.206 20.161 4.401 27.456 11.705l158.335 158.517c15.587 15.604 15.572 40.89-.032 56.476l-73.45 73.366c-15.604 15.587-40.889 15.572-56.476-.032z" fill="#fdf385"/><circle cx="146.232" cy="64.188" fill="#fff" r="15.459"/></g></g></g><g><path d="m511.766 138.957c0-8.912-3.305-17.356-9.191-23.858 6.503-13.843 10.174-29.91 9.135-47.188-2.329-38.716-31.712-67.911-68.348-67.911-37.533 0-65.623 31.65-68.34 67.799-1.018 13.537.886 25.46 4.094 35.563h-53.345l-37.535-37.578c-6.854-6.86-17.465 3.74-10.612 10.601l107.626 107.748c12.496 12.511 12.485 33.374-.026 45.87l-73.449 73.366c-12.47 12.455-33.417 12.442-45.87-.026l-158.336-158.517c-5.955-5.962-9.322-13.885-9.481-22.311l-1.041-55.224c-.209-11.089 5.587-20.063 13.356-27.403l15.025 14.625c-3.971 8.527-2.097 19.234 4.561 25.9 8.887 8.897 23.571 8.906 32.468.019 8.957-8.946 8.965-23.511.019-32.468-7.191-7.199-18.006-8.604-26.627-4.239l-14.833-14.437c7.618-8.149 16.616-14.533 28.376-14.28l55.223 1.104c8.425.168 16.345 3.545 22.3 9.507l25.723 25.751c6.853 6.861 17.465-3.74 10.612-10.601l-25.722-25.751c-8.709-8.719-20.291-13.657-32.613-13.903l-55.223-1.104c-15.873-.312-28.826 7.733-39.425 18.814l-12.02-11.7c-6.948-6.764-17.411 3.985-10.462 10.749l11.869 11.552c-10.728 10.21-17.89 22.96-17.604 38.148l.675 35.788h-47.115c-19.628 0-35.596 15.968-35.596 35.595v124.653c0 9.697 15 9.697 15 0v-124.653c0-11.356 9.239-20.595 20.596-20.595h47.398c-.357 13.817 4.064 27.169 13.949 37.065l158.335 158.517c18.219 18.241 48.838 18.262 67.083.038l73.449-73.366c18.267-18.245 18.289-48.813.038-67.083l-55.108-55.171h44.583c7.672 14.82 19.281 28.041 33.595 36.747-5.403 4.896-6.935 12.69-3.179 19.083 4.184 7.123 12.793 8.733 20.109 5.981v27.725c0 17.216 6.84 24.704 12.335 30.72 10.226 11.193 7.787 23.196-1.176 34.443-4.972 6.238-11.159 14.002-11.159 27.003 0 9.697 15 9.697 15 0 0-7.755 3.482-12.124 7.89-17.655 13.488-16.923 15.701-37.288.521-53.908-4.699-5.144-8.411-9.208-8.411-20.604v-27.037c6.83 3.02 14.974 1.919 19.606-4.417 4.958-6.781 2.593-15.613-2.742-21.337 9.725-5.918 19.08-14.766 26.66-25.761 1.544 2.923 2.379 6.208 2.379 9.61v201.689h-52.964c-12.018-20.617-33.461-33.979-58.236-33.979-24.053 0-45.886 13.353-57.936 33.979h-184.279c14.234-17.215 24.125-41.279 22.5-68.299-2.329-38.716-31.711-67.911-68.348-67.911-37.533 0-65.623 31.65-68.34 67.799-1.858 24.72 6.291 49.471 22.226 68.411h-36.374v-40.563c0-9.697-15-9.697-15 0v87.525c0 19.627 15.968 35.596 35.596 35.596h73.765c-.153 8.156-3.716 12.65-8.214 18.293-4.972 6.239-11.159 14.003-11.159 27.004 0 9.697 15 9.697 15 0 0-7.755 3.482-12.124 7.89-17.655 5.054-6.342 11.315-14.225 11.482-27.642h86.142l-8.305 73.695h-29.945c-9.697 0-9.697 15 0 15h167.247c9.697 0 9.697-15 0-15h-29.945l-8.305-73.695h25.36c7.654 15.579 19.62 29.513 34.513 38.571-5.403 4.896-6.935 12.69-3.179 19.083 4.173 7.107 12.761 8.734 20.066 5.993v17.651c0 9.697 15 9.697 15 0v-16.988c6.841 3.032 15.004 1.952 19.649-4.401 4.958-6.781 2.594-15.613-2.741-21.338 13.26-8.07 25.831-21.581 34.147-38.57h32.092c19.628 0 35.596-15.968 35.596-35.596zm-359.903-80.394c3.102 3.105 3.099 8.154-.006 11.255-3.104 3.101-8.154 3.098-11.255-.007-3.106-3.753-3.104-7.505.007-11.255 3.752-3.099 7.503-3.097 11.254.007zm301.649 87.059c-4.258 1.78-6.115 7.566-3.086 11.536l7.934 10.4c-3.467-4.767-25.779-5.275-29.668-.997l8.184-8.184c3.766-3.766 2.382-10.358-2.581-12.292-20.218-7.877-47.333-37.025-44.315-77.163 2.135-28.391 23.655-53.922 53.382-53.922 28.583 0 51.53 23.134 53.375 53.812 2.494 41.46-25.22 69.129-43.225 76.81zm-409.392 127.737c2.135-28.393 23.655-53.924 53.382-53.924 28.583 0 51.53 23.134 53.375 53.812 2.494 41.461-25.22 69.13-43.286 76.836-4.219 1.808-6.041 7.558-3.026 11.51l7.934 10.4c-3.277-4.369-25.457-5.628-29.668-.997l8.184-8.184c3.766-3.766 2.382-10.358-2.581-12.292-20.217-7.875-47.332-37.023-44.314-77.161zm-29.106 114.248v-31.962h52.262c1.908 1.407 3.845 2.711 5.797 3.898l-.847.847c-4.915 4.915-5.852 12.243-2.332 18.236s10.378 8.748 17.063 6.847c.964-.515 2.532-.723 3.626-1.014 1.457 9.641 6.453 16.704 12.8 23.744h-67.773c-11.357 0-20.596-9.239-20.596-20.596zm279.46 109.291h-77.168l8.305-73.695h60.559zm-172.986-88.695c-3.824-8.378-12.633-13.547-15.302-22.483 13.766 5.847 27.785-10.311 18.239-22.825l-2.558-3.353c1.94-1.181 3.862-2.49 5.762-3.897h193.297c-5.48 16.895-5.177 35.589-.165 52.558zm274.122 44.131c-4.19 1.829-5.984 7.556-2.981 11.491l7.934 10.4c-2.964-4.446-25.561-5.514-29.667-.997l8.184-8.184c3.766-3.766 2.382-10.358-2.581-12.292-29.572-11.522-46.594-46.852-44.315-77.163 2.135-28.393 23.655-53.924 53.382-53.924 28.583 0 51.529 23.134 53.375 53.812 2.493 41.461-25.22 69.131-43.331 76.857zm80.559-44.131h-26.204c3.136-10.417 4.663-21.731 3.947-33.625-.398-6.625-1.607-12.963-3.491-18.932h46.343v31.962c.002 11.356-9.238 20.595-20.595 20.595z"/><path d="m120.932 275.049c.567 9.441 15.565 8.93 14.973-.901-.667-11.083-5.007-21.255-12.222-28.644-6.776-6.937-17.507 3.541-10.732 10.479 4.695 4.809 7.53 11.58 7.981 19.066z"/><path d="m469.542 41.067c-6.776-6.937-17.507 3.541-10.732 10.479 4.696 4.81 7.531 11.581 7.981 19.066.567 9.44 15.565 8.93 14.973-.901-.666-11.083-5.007-21.255-12.222-28.644z"/><path d="m411.745 347.734c-6.776-6.937-17.507 3.541-10.732 10.479 4.696 4.81 7.531 11.581 7.981 19.066.567 9.44 15.565 8.93 14.973-.901-.666-11.083-5.007-21.255-12.222-28.644z"/><path d="m266.482 230.528c3.541 1.594 8.309-.186 9.918-3.758l21.712-48.202c3.09-6.828-4.456-14.574-11.407-11.403l-48.264 21.716c-8.843 3.978-2.688 17.662 6.154 13.679l7.306-3.287 14.099 14.062-3.277 7.276c-1.7 3.775-.018 8.216 3.759 9.917zm.058-37.843 10.989-4.944-4.943 10.974z"/><path d="m327.648 200.178c-2.933-2.927-7.682-2.919-10.606.014l-35.396 35.489c-2.58 2.586-2.921 6.656-.808 9.635.471.664.707.996 13.289 13.406 6.894 6.799 17.444-3.864 10.533-10.68-2.43-2.397-4.986-4.927-7.125-7.052l30.127-30.207c2.925-2.931 2.919-7.68-.014-10.605z"/><path d="m249.725 123.105c-2.932-2.925-7.681-2.92-10.606.014l-17.552 17.598-17.551 17.597c-2.925 2.933-2.919 7.682.014 10.606l14.83 14.791c6.863 6.847 17.46-3.771 10.593-10.62l-9.52-9.495 6.959-6.977 8.426 8.404c6.863 6.847 17.46-3.771 10.593-10.62l-8.426-8.404 6.959-6.977 9.52 9.495c6.865 6.848 17.459-3.772 10.593-10.62z"/><path d="m207.956 82.894c-3.05-3.041-7.764-2.841-10.736.144l-33.691 33.779c-2.865 2.872-3.564 8.178-.455 11.256.296.293 7.291 7.216 10.127 9.948 12.225 11.774 30.321 7.302 41.26-3.666 11.339-11.369 15.713-29.3 3.256-41.724zm2.398 29.412c-1.432 9.996-17.109 24.192-26.747 14.91-1.095-1.055-2.88-2.804-4.639-4.534 3.965-4 19.576-19.698 23.715-23.862 3.853 3.306 8.46 7.973 7.671 13.486z"/><path d="m367.547 212.556c6.296 0 9.756-8.351 5.303-12.803l-154.244-154.244c-6.857-6.857-17.464 3.75-10.606 10.606l154.244 154.244c1.464 1.464 3.384 2.197 5.303 2.197z"/><path d="m125.339 124.398c-2.929 2.929-2.929 7.678 0 10.606l156.365 156.366c6.857 6.857 17.464-3.75 10.606-10.606l-156.364-156.366c-2.929-2.928-7.678-2.928-10.607 0z"/></g></g></svg>