<?xml version="1.0" encoding="iso-8859-1"?>
<!-- Generator: Adobe Illustrator 19.0.0, SVG Export Plug-In . SVG Version: 6.00 Build 0)  -->
<svg xmlns="http://www.w3.org/2000/svg" xmlns:xlink="http://www.w3.org/1999/xlink" version="1.1" id="Layer_1" x="0px" y="0px" viewBox="0 0 512 512" style="enable-background:new 0 0 512 512;" xml:space="preserve" width="50" height="50">
<g>
	<circle style="fill:#FDBF00;" cx="256" cy="256" r="256"/>
	<path style="fill:#FF9100;" d="M511.544,240.886L390.298,119.64L116.906,393.031l118.108,118.108   C241.937,511.701,248.933,512,256,512c141.385,0,256-114.615,256-256C512,250.925,511.835,245.889,511.544,240.886z"/>
	<g>
		<polygon style="fill:#3E5959;" points="168.062,388.757 141.507,417.872 116.917,393.086 92.131,368.496 121.245,341.94     164.325,345.677   "/>
		<polygon style="fill:#293939;" points="164.325,345.677 168.062,388.757 141.507,417.872 116.917,393.086   "/>
		<polygon style="fill:#00C0F1;" points="237.831,312.105 168.062,388.757 144.654,365.348 121.245,341.94 197.898,272.172   "/>
		<polygon style="fill:#009AE4;" points="217.963,292.237 237.831,312.105 168.062,388.757 144.654,365.348   "/>
		<path style="fill:#537983;" d="M390.316,119.66c-49.993-49.98-130.69-49.969-180.67,0.024s-49.969,130.69,0.024,180.67    s130.69,49.969,180.67-0.024S440.309,169.64,390.316,119.66z"/>
		<path style="fill:#3E5959;" d="M390.284,300.302c-49.966,49.966-130.618,50.163-180.584,0l180.584-180.583    C440.249,169.685,440.446,250.337,390.284,300.302z"/>
		<path style="fill:#E0F4FF;" d="M376.495,133.505c-42.334-42.334-110.679-42.334-153.013,0s-42.334,110.679,0,153.013    s110.679,42.334,153.013,0S418.829,175.84,376.495,133.505z"/>
		<path style="fill:#BBDCFF;" d="M376.514,286.533c-42.294,42.293-110.75,42.293-153.044,0l153.044-153.044    C418.807,175.783,418.807,244.239,376.514,286.533z"/>
		<path style="fill:#00C0F1;" d="M329.481,170.668c0-16.318-13.172-29.49-29.49-29.49s-29.49,13.172-29.49,29.49    s13.172,29.49,29.49,29.49S329.481,186.986,329.481,170.668z"/>
		<path style="fill:#25D9F8;" d="M309.041,200.962c-2.951-0.59-5.902-0.786-9.049-0.786c-27.147,0-49.178,22.032-49.178,49.178    v29.507h98.357v-29.507C349.171,225.354,331.86,205.29,309.041,200.962z"/>
		<path style="fill:#00C0F1;" d="M349.171,249.354v29.507h-98.357v-19.671l58.228-58.228    C331.86,205.29,349.171,225.354,349.171,249.354z"/>
	</g>
</g>















</svg>
