<?xml version="1.0" encoding="iso-8859-1"?>
<!-- Generator: Adobe Illustrator 19.0.0, SVG Export Plug-In . SVG Version: 6.00 Build 0)  -->
<svg version="1.1" id="Capa_1" xmlns="http://www.w3.org/2000/svg" xmlns:xlink="http://www.w3.org/1999/xlink" width="50" 
height="50"  x="0px" y="0px"
	 viewBox="0 0 512 512" style="enable-background:new 0 0 512 512;" xml:space="preserve">
<g>
	<g>
		<path style="fill:orange"  d="M375.519,161.24c10.204-10.761,16.484-25.278,16.484-41.242c0-33.083-26.915-59.999-59.999-59.999
			c-33.083,0-59.999,26.915-59.999,59.999c0,15.965,6.28,30.481,16.484,41.242c-27.694,15.363-46.483,44.904-46.483,78.755v15
			c0,8.284,6.716,15,15,15h149.997c8.284,0,15-6.716,15-15v-15C422.002,206.144,403.212,176.603,375.519,161.24z M332.004,89.998
			c16.542,0,29.999,13.458,29.999,29.999c0,16.542-13.458,29.999-29.999,29.999c-16.542,0-29.999-13.458-29.999-29.999
			S315.462,89.998,332.004,89.998z M272.005,239.995c0-33.083,26.915-59.999,59.999-59.999c33.083,0,59.999,26.915,59.999,59.999
			H272.005z"/>
	</g>
</g>
<g>
	<g>
		<path style="fill:#AB7C94" d="M332.004,0c-99.25,0-179.997,80.746-179.997,179.996c0,44.237,16.051,84.789,42.621,116.163l-29.426,29.426
			c-16.341-7.821-37.084-5.337-51.221,8.801L13.193,435.174c-17.59,17.589-17.592,46.043,0,63.634
			c17.589,17.589,46.043,17.591,63.634-0.001c11.225-11.225,92.329-92.329,100.788-100.788
			c13.826-13.826,16.748-34.481,8.782-51.203l29.445-29.445c31.372,26.572,71.926,42.622,116.162,42.622
			c99.25,0,179.996-80.746,179.996-179.997S431.254,0,332.004,0z M55.614,477.597c-5.866,5.865-15.342,5.866-21.209,0
			c-5.865-5.868-5.866-15.344,0-21.21l66.393-66.392l21.209,21.209L55.614,477.597z M156.402,376.807l-13.183,13.183l-21.209-21.208
			l13.183-13.183c5.86-5.861,15.347-5.861,21.208,0c0.001,0.001,0.002,0.001,0.003,0.002
			C162.249,361.448,162.248,370.961,156.402,376.807z M332.004,329.994c-82.708,0-149.997-67.289-149.997-149.997
			S249.295,29.999,332.004,29.999s149.997,67.289,149.997,149.997S414.712,329.994,332.004,329.994z"/>
	</g>
</g>
<g>
</g>
<g>
</g>
<g>
</g>
<g>
</g>
<g>
</g>
<g>
</g>
<g>
</g>
<g>
</g>
<g>
</g>
<g>
</g>
<g>
</g>
<g>
</g>
<g>
</g>
<g>
</g>
<g>
</g>
</svg>
