<svg height="464pt" viewBox="-32 0 464 464.10341" width="464pt" xmlns="http://www.w3.org/2000/svg"><path d="m400.050781 264c.046875 88.5625-58.15625 166.609375-143.050781 191.824219-84.898438 25.21875-176.265625-8.402344-224.574219-82.628907-48.308593-74.226562-42.046875-171.382812 15.386719-238.796874 6.890625-8.171876 14.464844-15.746094 22.640625-22.636719 31.929687-27.3125 71.707031-43.78125 113.597656-47.042969 5.28125-.480469 10.640625-.71875 16-.71875s10.722657.238281 16 .71875c41.890625 3.261719 81.667969 19.730469 113.601563 47.042969 8.171875 6.890625 15.746094 14.464843 22.640625 22.636719 30.910156 36.097656 47.855469 82.078124 47.757812 129.601562zm0 0" fill="#ff5023"/><path d="m349.25 397.199219c-73.214844 80.515625-197.367188 87.710937-279.394531 16.199219-82.03125-71.515626-91.824219-195.492188-22.042969-279 5.859375-6.992188 12.25-13.515626 19.121094-19.519532-1.121094 1.121094-2.082032 2.320313-3.121094 3.519532-67.882812 80.089843-62.285156 199.035156 12.820312 272.394531 75.105469 73.359375 194.148438 76.15625 272.617188 6.40625zm0 0" fill="#d95339"/><path d="m368.050781 264c0 92.785156-75.214843 168-168 168-92.78125 0-168-75.214844-168-168s75.21875-168 168-168c92.785157 0 168 75.214844 168 168zm0 0" fill="#ffd422"/><path d="m326.53125 374.480469c-41.238281 47.265625-105.382812 67.609375-166.328125 52.75-60.941406-14.855469-108.527344-62.441407-123.382813-123.382813-14.859374-60.945312 5.484376-125.085937 52.75-166.328125-58.214843 66.535157-54.875 166.8125 7.636719 229.324219 62.515625 62.515625 162.789063 65.851562 229.324219 7.636719zm0 0" fill="#ebbf00"/><g fill="#3d9ae2"><path d="m369.730469 116.960938-17.4375 17.4375c-6.894531-8.171876-14.46875-15.746094-22.640625-22.636719l17.4375-17.441407zm0 0"/><path d="m240.050781 8v16c0 4.417969-3.582031 8-8 8h-64c-4.417969 0-8-3.582031-8-8v-16c0-4.417969 3.582031-8 8-8h64c4.417969 0 8 3.582031 8 8zm0 0"/><path d="m53.011719 94.320312 17.441406 17.441407c-8.175781 6.890625-15.75 14.464843-22.640625 22.636719l-17.441406-17.4375zm0 0"/></g><path d="m216.050781 32v32.71875c-5.277343-.480469-10.640625-.71875-16-.71875s-10.71875.238281-16 .71875v-32.71875zm0 0" fill="#c6c5ca"/><path d="m211.332031 275.28125c-2.964843 3.039062-7.035156 4.742188-11.28125 4.71875-8.835937 0-16-7.164062-16-16s7.164063-16 16-16c8.835938 0 16 7.164062 16 16 .023438 4.246094-1.679687 8.316406-4.71875 11.28125zm0 0" fill="#ff9811"/><path d="m184.050781 32h32v16h-32zm0 0" fill="#acabb1"/><path d="m205.675781 280.9375 11.3125-11.3125 52.714844 52.71875-11.3125 11.3125zm0 0" fill="#ee8700"/><path d="m317.394531 315.199219-14.664062-6.398438c12.96875-29.765625 12.398437-63.6875-1.566407-92.996093-13.964843-29.308594-39.949218-51.125-71.230468-59.804688l4.253906-15.425781c55.417969 15.449219 93.78125 65.894531 93.863281 123.425781.039063 17.621094-3.589843 35.058594-10.65625 51.199219zm0 0" fill="#f1f2f2"/><path d="m214.996094 152.984375c-4.953125-.65625-9.945313-.984375-14.945313-.984375v-16c5.703125 0 11.402344.375 17.058594 1.128906zm0 0" fill="#f1f2f2"/><path d="m200.050781 288c-13.253906 0-24-10.746094-24-24s10.746094-24 24-24c13.253907 0 24 10.746094 24 24s-10.746093 24-24 24zm0-32c-4.417969 0-8 3.582031-8 8s3.582031 8 8 8 8-3.582031 8-8-3.582031-8-8-8zm0 0" fill="#cc7400"/></svg>