<svg height="799.99998pt" viewBox="-24 -24 799.99998 799.99998" width="799.99998pt" xmlns="http://www.w3.org/2000/svg"><path d="m748.332031 460.832031v-175h-111.570312c-4.175781-12.667969-9.253907-25.027343-15.207031-36.972656l78.820312-78.828125-123.75-123.75-78.828125 78.816406c-11.9375-5.945312-24.292969-11.015625-36.964844-15.191406v-111.574219h-175v111.574219c-12.667969 4.175781-25.027343 9.253906-36.972656 15.203125l-78.828125-78.753906-123.75 123.753906 78.816406 78.820313c-5.9375 11.921874-11.015625 24.257812-15.191406 36.902343h-111.574219v175h111.574219c4.175781 12.671875 9.253906 25.03125 15.203125 36.972657l-78.753906 78.828124 123.753906 123.75 78.808594-78.753906c11.925781 5.921875 24.265625 10.976563 36.914062 15.132813v111.570312h175v-111.570312c12.675781-4.175781 25.039063-9.257813 36.988281-15.207031l78.8125 78.820312 123.75-123.75-78.753906-78.828125c5.929688-11.945313 10.980469-24.296875 15.132813-36.964844zm-83.308593 115.800781-88.390626 88.375-74.246093-74.175781-8.214844 4.472657c-15.691406 8.507812-32.246094 15.324218-49.378906 20.324218l-8.960938 2.585938v105.117187h-125v-105.117187l-8.957031-2.636719c-17.136719-5-33.6875-11.816406-49.382812-20.320313l-8.210938-4.472656-74.25 74.222656-88.386719-88.375 74.238281-74.246093-4.472656-8.214844c-8.515625-15.6875-15.328125-32.238281-20.324218-49.378906l-2.636719-8.960938h-105.117188v-125h105.117188l2.636719-8.957031c4.996093-17.140625 11.808593-33.691406 20.324218-49.382812l4.472656-8.210938-74.238281-74.25 88.386719-88.386719 74.25 74.238281 8.210938-4.472656c15.695312-8.507812 32.246093-15.324218 49.382812-20.324218l8.957031-2.636719v-105.117188h125v105.117188l8.960938 2.636719c17.132812 5 33.6875 11.816406 49.378906 20.324218l8.214844 4.472656 74.246093-74.238281 88.390626 88.386719-74.191407 74.25 4.472657 8.210938c8.515624 15.691406 15.328124 32.242187 20.324218 49.382812l2.644532 8.957031h105.058593v125h-105.117187l-2.636719 8.960938c-4.992187 17.140625-11.804687 33.691406-20.320313 49.378906l-4.472656 8.214844zm0 0"/><path d="m508.644531 308.734375 41.464844-41.460937-70.714844-70.71875-41.460937 41.464843c-4.757813-2.257812-9.628906-4.277343-14.601563-6.023437v-58.664063h-100v58.664063c-4.96875 1.746094-9.84375 3.765625-14.597656 6.023437l-41.460937-41.464843-70.71875 70.71875 41.464843 41.460937c-2.265625 4.753906-4.277343 9.628906-6.023437 14.597656h-58.664063v100h58.664063c1.746094 4.972657 3.757812 9.84375 6.023437 14.601563l-41.464843 41.460937 70.71875 70.714844 41.460937-41.464844c4.753906 2.261719 9.628906 4.277344 14.597656 6.027344v58.660156h100v-58.660156c4.972657-1.75 9.84375-3.765625 14.601563-6.027344l41.460937 41.464844 70.714844-70.714844-41.464844-41.460937c2.265625-4.757813 4.277344-9.628906 6.027344-14.601563h58.660156v-100h-58.660156c-1.75-4.96875-3.761719-9.84375-6.027344-14.597656zm39.6875 89.597656h-52.265625l-2.570312 9.089844c-2.628906 9.328125-6.335938 18.328125-11.050782 26.800781l-4.625 8.246094 36.925782 36.925781-35.351563 35.363281-36.925781-36.925781-8.246094 4.613281c-8.472656 4.710938-17.460937 8.421876-26.789062 11.050782l-9.101563 2.570312v52.265625h-50v-52.265625l-9.101562-2.570312c-9.324219-2.628906-18.3125-6.339844-26.785157-11.050782l-8.246093-4.613281-36.925781 36.925781-35.351563-35.363281 36.925781-36.925781-4.625-8.246094c-4.71875-8.472656-8.421875-17.472656-11.050781-26.800781l-2.574219-9.089844h-52.265625v-50h52.265625l2.574219-9.085937c2.628906-9.332032 6.332031-18.328125 11.050781-26.800782l4.625-8.246093-36.925781-36.925781 35.351563-35.367188 36.925781 36.929688 8.246093-4.613282c8.472657-4.710937 17.460938-8.421875 26.785157-11.050781l9.101562-2.574219v-52.265625h50v52.265625l9.101563 2.574219c9.328125 2.628906 18.316406 6.339844 26.789062 11.050781l8.246094 4.613282 36.925781-36.929688 35.351563 35.367188-36.925782 36.925781 4.625 8.246093c4.714844 8.472657 8.421876 17.46875 11.050782 26.800782l2.570312 9.085937h52.265625zm0 0"/><path d="m373.332031 323.332031c-27.609375 0-50 22.390625-50 50 0 27.613281 22.390625 50 50 50 27.613281 0 50-22.386719 50-50 0-27.609375-22.386719-50-50-50zm0 75c-13.808593 0-25-11.191406-25-25 0-13.808593 11.191407-25 25-25 13.808594 0 25 11.191407 25 25 0 13.808594-11.191406 25-25 25zm0 0"/></svg>